<svg width="175" height="36" viewBox="0 0 175 36" fill="none" xmlns="http://www.w3.org/2000/svg">
<path d="M40.3027 10.8641H44.4731L49.1588 23.817L53.8689 10.8641H57.8676L51.0477 28.0365H47.049L40.3027 10.8641Z" fill="#F5F8FA"/>
<path d="M59.6786 14.8383H63.4565V28.0365H59.6786V14.8383ZM61.543 8.9751C62.1482 8.9751 62.6388 9.17135 63.015 9.56387C63.4075 9.95638 63.6037 10.4634 63.6037 11.0849C63.6037 11.7063 63.4075 12.2133 63.015 12.6058C62.6388 12.9984 62.1482 13.1946 61.543 13.1946C60.9543 13.1946 60.4636 12.9984 60.0711 12.6058C59.695 12.197 59.5069 11.69 59.5069 11.0849C59.5069 10.4634 59.695 9.95638 60.0711 9.56387C60.4636 9.17135 60.9543 8.9751 61.543 8.9751Z" fill="#F5F8FA"/>
<path d="M72.7483 14.7156C74.8744 14.7156 76.4853 15.3289 77.5811 16.5555C78.6932 17.7821 79.2493 19.4912 79.2493 21.6827C79.2493 22.0752 79.2411 22.3778 79.2247 22.5904H69.7554C69.968 23.4245 70.3768 24.0787 70.982 24.553C71.5871 25.0109 72.3149 25.2399 73.1653 25.2399C73.7868 25.2399 74.3837 25.1254 74.9562 24.8964C75.5286 24.6511 76.0437 24.2995 76.5017 23.8415L78.4888 25.8532C77.8182 26.6055 77.0005 27.1861 76.0356 27.5949C75.087 27.9875 74.0239 28.1837 72.8464 28.1837C71.4562 28.1837 70.2378 27.9057 69.1911 27.3496C68.1608 26.7936 67.3594 26.0085 66.787 24.9945C66.2309 23.9806 65.9529 22.8112 65.9529 21.4865C65.9529 20.1454 66.2391 18.9678 66.8115 17.9538C67.3839 16.9235 68.1853 16.1303 69.2156 15.5742C70.246 15.0018 71.4235 14.7156 72.7483 14.7156ZM75.6921 20.358C75.6594 19.4912 75.3814 18.7961 74.858 18.2728C74.3347 17.7494 73.6396 17.4877 72.7728 17.4877C71.9551 17.4877 71.2682 17.7494 70.7121 18.2728C70.1724 18.7798 69.8289 19.4748 69.6818 20.358H75.6921Z" fill="#F5F8FA"/>
<path d="M89.8883 27.3006C89.3977 27.5949 88.8498 27.8239 88.2447 27.9875C87.6559 28.1347 87.059 28.2082 86.4538 28.2082C85.2272 28.2082 84.2296 27.8566 83.4609 27.1534C82.6923 26.4501 82.3079 25.4443 82.3079 24.1359V18.0274H80.468V15.427H82.3079V11.7963H86.0613V15.427H89.643V18.052H86.0613V23.4981C86.0613 24.5121 86.462 25.0191 87.2634 25.0191C87.8195 25.0191 88.4328 24.8555 89.1033 24.5284L89.8883 27.3006Z" fill="#F5F8FA"/>
<path d="M100.334 27.3006C99.843 27.5949 99.2951 27.8239 98.69 27.9875C98.1012 28.1347 97.5043 28.2082 96.8991 28.2082C95.6725 28.2082 94.6749 27.8566 93.9062 27.1534C93.1376 26.4501 92.7532 25.4443 92.7532 24.1359V18.0274H90.9133V15.427H92.7532V11.7963H96.5066V15.427H100.088V18.052H96.5066V23.4981C96.5066 24.5121 96.9073 25.0191 97.7087 25.0191C98.2648 25.0191 98.8781 24.8555 99.5486 24.5284L100.334 27.3006Z" fill="#F5F8FA"/>
<path d="M108.181 14.7156C110.307 14.7156 111.918 15.3289 113.014 16.5555C114.126 17.7821 114.682 19.4912 114.682 21.6827C114.682 22.0752 114.674 22.3778 114.657 22.5904H105.188C105.401 23.4245 105.809 24.0787 106.415 24.553C107.02 25.0109 107.747 25.2399 108.598 25.2399C109.219 25.2399 109.816 25.1254 110.389 24.8964C110.961 24.6511 111.476 24.2995 111.934 23.8415L113.921 25.8532C113.251 26.6055 112.433 27.1861 111.468 27.5949C110.52 27.9875 109.456 28.1837 108.279 28.1837C106.889 28.1837 105.67 27.9057 104.624 27.3496C103.593 26.7936 102.792 26.0085 102.22 24.9945C101.663 23.9806 101.385 22.8112 101.385 21.4865C101.385 20.1454 101.672 18.9678 102.244 17.9538C102.816 16.9235 103.618 16.1303 104.648 15.5742C105.679 15.0018 106.856 14.7156 108.181 14.7156ZM111.125 20.358C111.092 19.4912 110.814 18.7961 110.291 18.2728C109.767 17.7494 109.072 17.4877 108.205 17.4877C107.388 17.4877 106.701 17.7494 106.145 18.2728C105.605 18.7798 105.262 19.4748 105.114 20.358H111.125Z" fill="#F5F8FA"/>
<path d="M117.274 9.83372H121.052V28.0365H117.274V9.83372Z" fill="#F5F8FA"/>
<path d="M136.225 15.6478C135.342 15.1081 134.401 14.6829 133.404 14.3722C132.422 14.0451 131.58 13.8815 130.877 13.8815C130.206 13.8815 129.675 14.0042 129.282 14.2495C128.89 14.4948 128.693 14.8546 128.693 15.3289C128.693 15.934 128.972 16.4001 129.528 16.7272C130.1 17.038 130.975 17.3651 132.153 17.7085C133.33 18.052 134.295 18.3954 135.047 18.7389C135.816 19.0823 136.47 19.5975 137.01 20.2844C137.55 20.9713 137.819 21.879 137.819 23.0074C137.819 24.1032 137.525 25.0518 136.936 25.8532C136.364 26.6382 135.571 27.2351 134.557 27.644C133.543 28.0529 132.39 28.2573 131.098 28.2573C129.707 28.2573 128.342 28.012 127.001 27.5214C125.66 27.0307 124.498 26.3602 123.517 25.5097L125.063 22.3451C125.93 23.1301 126.927 23.7598 128.056 24.2341C129.184 24.7083 130.214 24.9455 131.147 24.9455C131.948 24.9455 132.57 24.7983 133.011 24.5039C133.469 24.2095 133.698 23.7843 133.698 23.2282C133.698 22.7867 133.543 22.4269 133.232 22.1488C132.938 21.8544 132.553 21.6173 132.079 21.4374C131.621 21.2575 130.983 21.0531 130.165 20.8241C128.988 20.497 128.023 20.1699 127.271 19.8428C126.535 19.5157 125.897 19.0169 125.357 18.3464C124.817 17.6758 124.548 16.7845 124.548 15.6724C124.548 14.642 124.826 13.7425 125.382 12.9738C125.938 12.1888 126.715 11.5919 127.712 11.183C128.71 10.7578 129.871 10.5451 131.196 10.5451C132.373 10.5451 133.534 10.7169 134.679 11.0603C135.824 11.4038 136.838 11.8617 137.721 12.4341L136.225 15.6478Z" fill="#F5F8FA"/>
<path d="M148.116 28.0365V26.491C147.674 27.0471 147.102 27.4723 146.399 27.7667C145.695 28.0611 144.886 28.2082 143.97 28.2082C142.58 28.2082 141.476 27.8321 140.658 27.0798C139.84 26.3111 139.432 25.3135 139.432 24.0869C139.432 22.8439 139.865 21.879 140.732 21.1921C141.615 20.4888 142.858 20.129 144.461 20.1127H148.091V19.8673C148.091 19.1641 147.854 18.6244 147.38 18.2482C146.922 17.8557 146.243 17.6595 145.344 17.6595C144.117 17.6595 142.809 18.0438 141.419 18.8125L140.241 16.2121C141.288 15.6887 142.269 15.3044 143.185 15.0591C144.101 14.8137 145.107 14.6911 146.202 14.6911C147.969 14.6911 149.334 15.1081 150.299 15.9422C151.281 16.7763 151.779 17.9375 151.796 19.4258L151.82 28.0365H148.116ZM145.025 25.5097C145.81 25.5097 146.489 25.3216 147.061 24.9455C147.634 24.5693 147.977 24.095 148.091 23.5226V22.3451H145.123C144.387 22.3451 143.839 22.4677 143.479 22.7131C143.136 22.942 142.964 23.3182 142.964 23.8415C142.964 24.3485 143.144 24.7574 143.504 25.0681C143.88 25.3625 144.387 25.5097 145.025 25.5097Z" fill="#F5F8FA"/>
<path d="M155.198 9.83372H158.976V28.0365H155.198V9.83372Z" fill="#F5F8FA"/>
<path d="M168.433 14.7156C170.559 14.7156 172.17 15.3289 173.266 16.5555C174.378 17.7821 174.934 19.4912 174.934 21.6827C174.934 22.0752 174.926 22.3778 174.909 22.5904H165.44C165.653 23.4245 166.062 24.0787 166.667 24.553C167.272 25.0109 168 25.2399 168.85 25.2399C169.471 25.2399 170.068 25.1254 170.641 24.8964C171.213 24.6511 171.728 24.2995 172.186 23.8415L174.173 25.8532C173.503 26.6055 172.685 27.1861 171.72 27.5949C170.772 27.9875 169.709 28.1837 168.531 28.1837C167.141 28.1837 165.923 27.9057 164.876 27.3496C163.845 26.7936 163.044 26.0085 162.472 24.9945C161.916 23.9806 161.638 22.8112 161.638 21.4865C161.638 20.1454 161.924 18.9678 162.496 17.9538C163.069 16.9235 163.87 16.1303 164.9 15.5742C165.931 15.0018 167.108 14.7156 168.433 14.7156ZM171.377 20.358C171.344 19.4912 171.066 18.7961 170.543 18.2728C170.019 17.7494 169.324 17.4877 168.457 17.4877C167.64 17.4877 166.953 17.7494 166.397 18.2728C165.857 18.7798 165.514 19.4748 165.366 20.358H171.377Z" fill="#F5F8FA"/>
<path fill-rule="evenodd" clip-rule="evenodd" d="M5.0852 7.16492C5.86104 6.28483 6.99576 5.79853 8.27826 5.79853H24.3306V2.13281H8.27826C6.06423 2.13281 3.99534 2.98383 2.45423 4.52993C0.910484 6.07339 0.0607605 8.14544 0.0607605 10.3628V26.0591C0.0607605 26.4133 0.0607647 26.7542 0.0897924 27.0925L3.71826 23.2656V10.3602C3.7209 9.08104 4.20645 7.94458 5.0852 7.16492Z" fill="#F5F8FA"/>
<path fill-rule="evenodd" clip-rule="evenodd" d="M18.0756 26.6616L28.1899 10.5373L31.094 5.91218L32.4932 8.49429L34.4293 0L26.468 3.54942L29.9117 4.40836L17.3218 21.5027L12.2646 15.6962L0 29.5662L2.90416 35.37L12.2646 20.6411L18.0756 26.6616Z" fill="#F5F8FA"/>
<path fill-rule="evenodd" clip-rule="evenodd" d="M32.2325 11.7125L30.9754 9.46875L28.456 13.4429V26.0664C28.456 28.5694 26.495 30.5273 23.9941 30.5273H8.27687C8.00164 30.5273 7.64438 30.5273 7.32416 30.4612L5.32874 33.7871C6.29469 34.139 7.23947 34.303 8.27687 34.303H23.9941C28.4613 34.303 32.2325 30.53 32.2325 26.0664V11.7125Z" fill="#F5F8FA"/>
<path d="M7.77753 29.0649L12.3502 22.5845L18.1255 27.9866L27.0304 14.4248L26.9088 25.8273C26.9088 25.8273 26.5493 28.709 24.6224 29.0675C22.6982 29.4234 7.77753 29.0649 7.77753 29.0649Z" fill="#F5F8FA"/>
</svg>
